<svg width="420" height="420" viewBox="0 0 420 420" fill="none" xmlns="http://www.w3.org/2000/svg">
<rect width="420" height="420" rx="48" fill="#F5F6FF"/>
<circle cx="210" cy="150" r="80" fill="#5B4BFF" opacity="0.2"/>
<circle cx="210" cy="150" r="72" fill="#5B4BFF"/>
<path d="M210 92C230.986 92 248 109.014 248 130C248 150.986 230.986 168 210 168C189.014 168 172 150.986 172 130C172 109.014 189.014 92 210 92Z" fill="white"/>
<path d="M318 312C318 259.399 269.66 217 210 217C150.34 217 102 259.399 102 312" stroke="#5B4BFF" stroke-width="36" stroke-linecap="round" opacity="0.35"/>
<path d="M318 312C318 259.399 269.66 217 210 217C150.34 217 102 259.399 102 312" stroke="#5B4BFF" stroke-width="22" stroke-linecap="round"/>
<circle cx="147" cy="102" r="18" fill="#FF7A59"/>
<circle cx="315" cy="186" r="12" fill="#FF7A59" opacity="0.7"/>
<circle cx="105" cy="242" r="10" fill="#FF7A59" opacity="0.5"/>
</svg>
